<svg width="125" height="18" viewBox="0 0 125 18" fill="none" xmlns="http://www.w3.org/2000/svg">
<path d="M14.6039 13.092C14.6039 14.052 14.3559 14.86 13.8599 15.516C13.3639 16.156 12.6919 16.644 11.8439 16.98C11.0119 17.316 10.0999 17.484 9.10785 17.484H0.875854V0.443974H9.99585C10.7959 0.443974 11.4839 0.659975 12.0599 1.09198C12.6519 1.50798 13.0999 2.05198 13.4039 2.72398C13.7239 3.37998 13.8839 4.06798 13.8839 4.78797C13.8839 5.60397 13.6759 6.37998 13.2599 7.11598C12.8439 7.85198 12.2359 8.39598 11.4359 8.74798C12.4119 9.03598 13.1799 9.55597 13.7399 10.308C14.3159 11.06 14.6039 11.988 14.6039 13.092ZM11.2679 12.468C11.2679 12.036 11.1799 11.652 11.0039 11.316C10.8279 10.964 10.5879 10.692 10.2839 10.5C9.99586 10.292 9.65986 10.188 9.27586 10.188H4.18785V14.676H9.10785C9.50785 14.676 9.86786 14.58 10.1879 14.388C10.5239 14.18 10.7879 13.908 10.9799 13.572C11.1719 13.236 11.2679 12.868 11.2679 12.468ZM4.18785 3.27598V7.57197H8.60386C8.97186 7.57197 9.30785 7.48397 9.61185 7.30797C9.91585 7.13197 10.1559 6.88398 10.3319 6.56398C10.5239 6.24398 10.6199 5.85997 10.6199 5.41197C10.6199 4.97997 10.5319 4.60397 10.3559 4.28397C10.1959 3.96397 9.97185 3.71597 9.68385 3.53998C9.41185 3.36398 9.09985 3.27598 8.74785 3.27598H4.18785Z" fill="black"/>
<path d="M35.8844 17.484V6.29998L31.5163 14.628H29.6684L25.3004 6.29998V17.484H21.9884V0.443974H25.5404L30.5804 10.14L35.6684 0.443974H39.1964V17.484H35.8844Z" fill="black"/>
<path d="M57.706 4.90798C57.594 4.79598 57.386 4.64397 57.082 4.45197C56.794 4.25997 56.434 4.07597 56.002 3.89997C55.586 3.72397 55.13 3.57197 54.634 3.44397C54.138 3.29997 53.634 3.22797 53.122 3.22797C52.226 3.22797 51.546 3.39597 51.082 3.73197C50.634 4.06797 50.41 4.53997 50.41 5.14797C50.41 5.61197 50.554 5.97998 50.842 6.25198C51.13 6.52397 51.562 6.75598 52.138 6.94798C52.714 7.13998 53.434 7.34797 54.298 7.57197C55.418 7.84397 56.386 8.17997 57.202 8.57997C58.034 8.96397 58.666 9.47598 59.098 10.116C59.546 10.74 59.77 11.572 59.77 12.612C59.77 13.524 59.602 14.308 59.266 14.964C58.93 15.604 58.466 16.124 57.874 16.524C57.282 16.924 56.61 17.22 55.858 17.412C55.106 17.588 54.306 17.676 53.458 17.676C52.61 17.676 51.762 17.588 50.914 17.412C50.066 17.236 49.25 16.988 48.466 16.668C47.682 16.332 46.962 15.932 46.306 15.468L47.77 12.612C47.914 12.756 48.17 12.948 48.538 13.188C48.906 13.412 49.354 13.644 49.882 13.884C50.41 14.108 50.986 14.3 51.61 14.46C52.234 14.62 52.866 14.7 53.506 14.7C54.402 14.7 55.082 14.548 55.546 14.244C56.01 13.94 56.242 13.508 56.242 12.948C56.242 12.436 56.058 12.036 55.69 11.748C55.322 11.46 54.81 11.212 54.154 11.004C53.498 10.78 52.722 10.54 51.826 10.284C50.754 9.97997 49.858 9.64398 49.138 9.27598C48.418 8.89198 47.882 8.41197 47.53 7.83597C47.178 7.25997 47.002 6.53997 47.002 5.67597C47.002 4.50798 47.274 3.53198 47.818 2.74798C48.378 1.94798 49.13 1.34797 50.074 0.947975C51.018 0.531975 52.066 0.323975 53.218 0.323975C54.018 0.323975 54.77 0.411974 55.474 0.587974C56.194 0.763974 56.866 0.995975 57.49 1.28397C58.114 1.57197 58.674 1.88398 59.17 2.21998L57.706 4.90798Z" fill="black"/>
<path d="M79.8167 3.34797H74.3687V17.484H71.0807V3.34797H65.6327V0.443974H79.8167V3.34797Z" fill="black"/>
<path d="M93.9561 17.604C92.5961 17.604 91.4361 17.38 90.4761 16.932C89.5321 16.468 88.7641 15.836 88.1721 15.036C87.5961 14.236 87.1721 13.332 86.9001 12.324C86.6281 11.3 86.4921 10.236 86.4921 9.13197V0.443974H89.8041V9.13197C89.8041 9.83597 89.8681 10.524 89.9961 11.196C90.1401 11.852 90.3721 12.444 90.6921 12.972C91.0121 13.5 91.4361 13.916 91.9641 14.22C92.4921 14.524 93.1481 14.676 93.9321 14.676C94.7321 14.676 95.3961 14.524 95.9241 14.22C96.4681 13.9 96.8921 13.476 97.1961 12.948C97.5161 12.42 97.7481 11.828 97.8921 11.172C98.0361 10.5 98.1081 9.81997 98.1081 9.13197V0.443974H101.396V9.13197C101.396 10.3 101.252 11.396 100.964 12.42C100.692 13.444 100.252 14.348 99.6441 15.132C99.0521 15.9 98.2841 16.508 97.3401 16.956C96.3961 17.388 95.2681 17.604 93.9561 17.604Z" fill="black"/>
<path d="M109.532 17.484V0.443974H115.724C117.58 0.443974 119.132 0.827975 120.38 1.59597C121.628 2.34798 122.564 3.37197 123.188 4.66797C123.812 5.94797 124.124 7.37197 124.124 8.93997C124.124 10.668 123.78 12.172 123.092 13.452C122.404 14.732 121.428 15.724 120.164 16.428C118.916 17.132 117.436 17.484 115.724 17.484H109.532ZM120.788 8.93997C120.788 7.83597 120.588 6.86798 120.188 6.03598C119.788 5.18798 119.212 4.53197 118.46 4.06798C117.708 3.58797 116.796 3.34797 115.724 3.34797H112.844V14.58H115.724C116.812 14.58 117.732 14.34 118.484 13.86C119.236 13.364 119.804 12.692 120.188 11.844C120.588 10.98 120.788 10.012 120.788 8.93997Z" fill="black"/>
</svg>
